<?xml version="1.0" standalone="no"?>
<!DOCTYPE svg PUBLIC "-//W3C//DTD SVG 20010904//EN"
 "http://www.w3.org/TR/2001/REC-SVG-20010904/DTD/svg10.dtd">
<svg version="1.0" xmlns="http://www.w3.org/2000/svg"
 width="1400.000000pt" height="400.000000pt" viewBox="0 0 1400.000000 400.000000"
 preserveAspectRatio="xMidYMid meet">

<g transform="translate(0.000000,400.000000) scale(0.100000,-0.100000)"
fill="#000000" stroke="none">
<path d="M2804 3855 c-36 -39 -156 -275 -174 -342 -8 -32 -8 -49 0 -64 11 -20
244 -179 263 -179 34 0 151 180 187 290 18 53 20 71 11 100 -18 60 -149 198
-209 221 -36 14 -42 12 -78 -26z"/>
<path d="M7005 3780 c-27 -10 -61 -62 -124 -187 -67 -135 -95 -217 -81 -243
12 -23 242 -180 263 -180 45 0 191 242 204 339 7 48 -21 101 -91 173 -84 86
-132 114 -171 98z"/>
<path d="M1902 3723 c-28 -39 -82 -150 -82 -166 0 -17 106 -107 125 -107 29 0
85 88 100 157 8 40 -23 102 -65 126 -39 24 -56 21 -78 -10z"/>
<path d="M2032 3476 c-11 -11 -32 -41 -48 -66 -15 -25 -29 -47 -31 -49 -1 -2
-25 17 -54 43 -28 25 -60 46 -70 46 -20 0 -53 -46 -105 -144 -28 -54 -28 -55
-9 -76 11 -12 40 -36 63 -52 56 -39 78 -30 123 46 19 31 36 56 39 56 4 0 30
-20 58 -45 32 -27 59 -42 68 -38 24 9 83 92 95 134 15 50 7 78 -36 121 -46 46
-68 52 -93 24z"/>
<path d="M668 3415 c-23 -36 -44 -65 -48 -65 -3 0 -26 20 -50 45 -24 25 -52
45 -62 45 -20 0 -55 -51 -100 -144 l-29 -61 51 -47 c72 -67 90 -65 142 16 l41
65 52 -45 c29 -24 57 -44 63 -44 15 0 69 65 93 112 28 55 19 95 -31 147 -56
57 -72 54 -122 -24z"/>
<path d="M6523 3418 c-11 -14 -104 -254 -147 -378 -63 -184 -176 -1040 -176
-1342 0 -311 137 -526 348 -545 130 -12 232 59 357 252 94 143 153 208 220
240 49 24 60 26 134 20 76 -7 83 -6 143 23 35 17 111 71 170 120 59 50 116 93
127 97 10 3 30 1 45 -5 45 -17 115 -12 152 11 64 39 123 148 149 274 15 76 19
210 6 255 -10 36 -41 32 -68 -10 -45 -71 -56 -82 -91 -97 -74 -31 -123 17
-149 144 -20 100 -32 115 -68 79 -85 -85 -132 -343 -91 -494 17 -63 15 -71
-27 -103 -40 -30 -115 -30 -201 0 -33 12 -72 21 -88 21 -49 0 -103 -36 -175
-117 -174 -197 -221 -228 -348 -227 -133 1 -249 78 -293 196 -60 161 -56 266
48 1093 54 432 59 539 23 493z"/>
<path d="M3501 3107 c-20 -25 -103 -211 -143 -322 -76 -211 -79 -238 -88 -725
-8 -459 -6 -442 -66 -737 -6 -29 -4 -33 14 -33 63 0 185 249 235 480 34 154
45 297 57 730 5 201 15 416 21 479 6 62 8 119 5 127 -7 18 -20 18 -35 1z"/>
<path d="M2318 2832 c-9 -9 -21 -27 -27 -39 -8 -16 -21 -23 -42 -23 -57 0
-117 -49 -199 -163 -37 -53 -40 -53 -159 -61 -74 -5 -92 -10 -168 -50 -154
-83 -235 -168 -444 -471 -138 -200 -252 -325 -384 -420 -180 -130 -197 -177
-33 -92 176 90 316 219 485 447 64 85 134 175 157 198 92 98 198 146 312 145
99 -2 116 11 217 164 90 138 112 159 177 169 59 10 91 51 126 161 14 46 6 63
-18 35z"/>
<path d="M870 2723 c-35 -44 -91 -167 -92 -201 -2 -49 25 -71 91 -74 51 -3 57
-6 70 -32 22 -47 1 -162 -50 -265 -76 -154 -217 -270 -375 -307 -125 -29 -282
-5 -347 54 -68 61 -81 196 -33 337 15 44 50 124 77 178 28 55 49 109 47 120
-4 27 -134 -184 -178 -291 -105 -248 -87 -496 42 -606 100 -86 284 -87 442 -3
177 93 377 387 441 647 32 130 43 290 25 356 -29 103 -112 148 -160 87z"/>
<path d="M5917 2658 c-13 -18 -40 -61 -61 -95 -49 -83 -80 -108 -242 -194
-112 -59 -153 -88 -210 -144 -78 -76 -103 -120 -235 -409 -37 -82 -80 -166
-95 -188 -39 -55 -149 -142 -364 -284 -102 -68 -211 -143 -242 -169 -58 -45
-73 -77 -42 -89 75 -29 407 36 516 101 112 67 167 148 268 398 69 173 137 300
180 339 19 17 99 64 177 105 169 87 211 127 278 265 81 170 141 396 106 396
-6 0 -21 -15 -34 -32z"/>
<path d="M4168 2593 c-8 -10 -46 -74 -83 -143 -38 -69 -85 -152 -106 -186 -67
-110 -65 -117 62 -250 158 -166 205 -265 161 -336 -49 -77 -245 -243 -441
-373 -70 -45 -133 -90 -140 -98 -34 -41 28 -48 150 -17 252 65 389 149 518
321 118 156 204 376 218 554 6 90 -16 199 -59 285 -35 69 -155 200 -218 239
-42 25 -43 25 -62 4z"/>
<path d="M2707 2492 c-9 -10 -48 -116 -87 -235 -77 -237 -152 -426 -208 -527
-43 -79 -193 -231 -342 -349 -215 -169 -248 -200 -252 -243 -3 -19 2 -24 25
-26 61 -7 399 107 502 169 138 85 196 190 294 534 85 295 144 632 120 677 -12
23 -31 23 -52 0z"/>
<path d="M7832 1420 c-61 -65 -176 -312 -176 -380 l-1 -45 115 -78 c144 -97
154 -100 192 -56 70 83 158 265 158 325 0 52 -69 147 -156 215 -58 45 -102 51
-132 19z"/>
<path d="M5803 1168 c-11 -13 -51 -76 -89 -140 -37 -65 -71 -118 -74 -118 -3
0 -16 16 -29 36 -32 46 -120 126 -162 147 -32 15 -35 15 -57 -6 -21 -20 -185
-338 -197 -383 -4 -16 7 -33 48 -73 61 -59 167 -141 183 -141 35 0 101 84 164
210 17 33 33 60 37 60 4 0 48 -40 99 -90 54 -53 100 -90 112 -90 28 0 80 57
136 149 112 185 93 303 -66 424 -58 43 -77 46 -105 15z"/>
<path d="M7245 789 c-14 -17 -50 -73 -80 -123 -30 -50 -59 -98 -64 -106 -8
-11 -22 0 -73 55 -75 81 -132 125 -164 125 -16 0 -33 -13 -54 -41 -43 -60
-180 -336 -180 -363 0 -33 192 -196 231 -196 43 0 122 94 182 217 12 23 24 43
28 43 3 0 46 -35 95 -78 49 -44 98 -84 110 -90 32 -17 74 15 138 105 86 121
114 215 85 290 -30 79 -151 193 -205 193 -13 0 -33 -13 -49 -31z"/>
<path d="M5614 568 c-29 -33 -63 -89 -122 -198 -86 -160 -88 -136 30 -256 56
-57 110 -104 119 -104 24 0 88 75 131 156 47 89 65 173 49 232 -19 68 -132
192 -176 192 -6 0 -20 -10 -31 -22z"/>
</g>
</svg>
