<?xml version="1.0" standalone="no"?>
<!DOCTYPE svg PUBLIC "-//W3C//DTD SVG 20010904//EN"
 "http://www.w3.org/TR/2001/REC-SVG-20010904/DTD/svg10.dtd">
<svg version="1.0" xmlns="http://www.w3.org/2000/svg"
 width="200.000000pt" height="200.000000pt" viewBox="0 0 200.000000 200.000000"
 preserveAspectRatio="xMidYMid meet">

<g transform="translate(0.000000,200.000000) scale(0.100000,-0.100000)"
fill="#000000" stroke="none">
<path d="M1253 1840 c-38 -12 -52 -29 -444 -505 -373 -454 -357 -432 -365
-482 -11 -74 8 -107 145 -246 69 -71 138 -135 153 -143 15 -8 54 -14 88 -14
53 0 60 2 60 20 0 18 -7 20 -57 20 -72 0 -78 4 -225 155 -133 138 -148 169
-112 235 19 33 154 199 564 694 232 280 239 282 392 152 59 -49 67 -54 79 -39
12 13 7 21 -36 59 -110 96 -164 117 -242 94z"/>
<path d="M1692 1656 c-40 -41 -72 -78 -72 -82 0 -5 35 26 77 68 42 43 75 80
72 83 -3 3 -38 -28 -77 -69z"/>
<path d="M1580 1481 c-72 -76 -158 -174 -190 -219 -93 -127 -248 -384 -265
-439 -13 -45 13 -22 45 40 66 125 194 331 268 430 41 56 125 153 185 215 61
61 105 112 99 112 -6 0 -69 -62 -142 -139z"/>
<path d="M1742 1513 c-8 -15 3 -28 68 -78 43 -33 85 -72 94 -87 23 -38 20 -89
-7 -129 -66 -97 -563 -702 -588 -714 -15 -8 -51 -15 -79 -15 -43 0 -50 -3 -50
-20 0 -18 7 -20 56 -20 89 0 112 17 242 179 65 80 194 240 286 354 92 114 174
220 182 235 20 39 18 111 -5 148 -16 26 -137 134 -178 157 -7 5 -16 0 -21 -10z"/>
<path d="M1524 1327 c-86 -109 -193 -266 -243 -355 -84 -151 -201 -422 -201
-464 0 -37 15 -9 65 117 118 299 228 490 428 743 5 6 6 12 1 12 -5 -1 -28 -24
-50 -53z"/>
<path d="M910 711 c38 -76 79 -168 92 -205 24 -69 37 -77 52 -34 7 19 3 38
-17 82 -29 63 -178 296 -189 296 -4 0 24 -62 62 -139z"/>
<path d="M1085 673 c-16 -32 -30 -61 -32 -65 -2 -5 0 -8 5 -8 10 0 68 118 60
125 -2 3 -17 -21 -33 -52z"/>
<path d="M57 283 c-4 -3 -7 -35 -7 -70 l0 -63 55 0 c42 0 55 3 55 15 0 11 -11
15 -36 15 -42 0 -43 23 -1 28 35 4 35 28 0 27 -14 0 -28 6 -30 13 -3 8 7 12
31 12 25 0 36 4 36 15 0 11 -12 15 -48 15 -27 0 -52 -3 -55 -7z"/>
<path d="M640 270 c0 -13 7 -20 20 -20 17 0 20 -7 20 -50 0 -43 3 -50 20 -50
17 0 20 7 20 50 0 43 3 50 20 50 13 0 20 7 20 20 0 18 -7 20 -60 20 -53 0 -60
-2 -60 -20z"/>
<path d="M1170 220 c0 -63 2 -70 20 -70 18 0 20 7 20 70 0 63 -2 70 -20 70
-18 0 -20 -7 -20 -70z"/>
<path d="M1605 265 c-61 -60 1 -154 76 -115 21 12 25 35 8 45 -6 4 -16 -1 -24
-11 -11 -15 -15 -16 -29 -5 -9 7 -16 24 -16 36 0 26 25 52 35 35 7 -12 45 -14
45 -2 0 15 -35 42 -54 42 -9 0 -28 -11 -41 -25z"/>
</g>
</svg>
