<svg xmlns="http://www.w3.org/2000/svg" version="1.1" xmlns:xlink="http://www.w3.org/1999/xlink" xmlns:svgjs="http://svgjs.dev/svgjs" width="1500" height="1500" viewBox="0 0 1500 1500"><rect width="1500" height="1500" fill="#4ea9f3"></rect><g transform="matrix(0.6666666666666666,0,0,0.6666666666666666,248.6088405108071,395.86129032258066)"><svg viewBox="0 0 351 248" data-background-color="#4ea9f3" preserveAspectRatio="xMidYMid meet" height="1059" width="1500" xmlns="http://www.w3.org/2000/svg" xmlns:xlink="http://www.w3.org/1999/xlink"><g id="tight-bounds" transform="matrix(1,0,0,1,0.488296980706707,0.4000000000000057)"><svg viewBox="0 0 350.0234060385866 247.2" height="247.2" width="350.0234060385866"><g><svg viewBox="0 0 395.52 279.3314455925886" height="247.2" width="350.0234060385866"><g transform="matrix(1,0,0,1,0,172.63803959803815)"><svg viewBox="0 0 395.52 106.6934059945504" height="106.6934059945504" width="395.52"><g id="textblocktransform"><svg viewBox="0 0 395.52 106.6934059945504" height="106.6934059945504" width="395.52" id="textblock"><g><svg viewBox="0 0 395.52 106.6934059945504" height="106.6934059945504" width="395.52"><g transform="matrix(1,0,0,1,0,0)"><svg width="395.52" viewBox="4.69 -33.84 125.43 33.84" height="106.6934059945504" data-palette-color="#fcdb7c"><path d="M8.69 0L4.69 0 4.69-33.84 15.14-33.84Q18.58-33.84 21.23-32.93 23.88-32.03 25.38-29.97 26.88-27.91 26.88-24.41L26.88-24.41Q26.88-21.07 25.38-18.86 23.88-16.65 21.23-15.56 18.58-14.48 15.14-14.48L15.14-14.48 8.69-14.48 8.69 0ZM8.69-30.54L8.69-17.72 14.53-17.72Q18.53-17.72 20.7-19.38 22.88-21.04 22.88-24.41L22.88-24.41Q22.88-27.83 20.7-29.19 18.53-30.54 14.53-30.54L14.53-30.54 8.69-30.54ZM27.81 0L23.29 0 14.31-15.6 17.55-17.6 27.81 0ZM37.38 0L33.79 0 33.79-33.84 38.67-33.84 45.26-15.5Q45.9-13.72 46.49-11.95 47.09-10.18 47.7-8.4L47.7-8.4 47.9-8.4Q48.53-10.18 49.09-11.95 49.66-13.72 50.27-15.5L50.27-15.5 56.76-33.84 61.72-33.84 61.72 0 57.96 0 57.96-19.17Q57.96-21.36 58.13-24.24 58.3-27.12 58.47-29.37L58.47-29.37 58.25-29.37 55.59-21.39 49.09-3.44 46.31-3.44 39.82-21.39 37.13-29.37 36.91-29.37Q37.08-27.12 37.23-24.24 37.38-21.36 37.38-19.17L37.38-19.17 37.38 0ZM82.15 0L78.14 0 78.14-30.44 67.84-30.44 67.84-33.84 92.48-33.84 92.48-30.44 82.15-30.44 82.15 0ZM109.66 0L105.66 0 105.66-30.44 95.35-30.44 95.35-33.84 119.99-33.84 119.99-30.44 109.66-30.44 109.66 0ZM130.12 0L126.11 0 126.11-33.84 130.12-33.84 130.12 0Z" opacity="1" transform="matrix(1,0,0,1,0,0)" fill="#fcdb7c" class="wordmark-text-0" data-fill-palette-color="primary" id="text-0"></path></svg></g></svg></g></svg></g></svg></g><g transform="matrix(1,0,0,1,115.38058089536504,0)"><svg viewBox="0 0 164.7588382092699 147.45028708446867" height="147.45028708446867" width="164.7588382092699"><g><svg xmlns="http://www.w3.org/2000/svg" xmlns:xlink="http://www.w3.org/1999/xlink" version="1.1" x="8" y="0" viewBox="13.167 13.491 73.666 73.018" enable-background="new 0 0 100 100" xml:space="preserve" height="147.45028708446867" width="148.7588382092699" class="icon-icon-0" data-fill-palette-color="accent" id="icon-0"><g fill="#fcdb7c" data-fill-palette-color="accent"><path fill="none" d="M52.25 20.875H54.834V18.135H56.834V22.875H52.25V24.43H60.5V18.135H62.5V26.43H52.25V28H66.25V20.552H68.25V30H52.25V31.874H70.75V23.552H72.75V33.874H52.25V38.526H72.75V46.581L63.832 55.499 62.418 54.085 70.75 45.753V40.526H52.25V46.923H60.834V54.665H52.501V70H52.25V71H69.834V73H52.25V77.336L53.836 75.75H72.25V68.5H57.167V58H64.253L75.5 46.753V18.135H77.5V47.581L65.081 60H59.167V66.5H81.5V68.5H74.25V77.75H54.664L52.25 80.164V84.509H84.833V15.491H52.25zM81.5 82H58.167V80H81.5zM82.5 62.75H80.5V56.875H82.5zM80.313 18.135H82.313V51.352L69.414 64.25H61.5V62.25H68.586L80.313 50.523z"></path><rect x="52.25" y="48.924" fill="none" width="6.584" height="3.742"></rect><path d="M52.25 13.491H13.167V86.509H86.833V13.491zM52.25 48.924H58.834V52.666H52.25zM84.833 84.509H52.25V80.164L54.664 77.75H74.25V68.5H81.5V66.5H59.167V60H65.081L77.5 47.581V18.135H75.5V46.753L64.253 58H57.167V68.5H72.25V75.75H53.836L52.25 77.336V73H69.834V71H52.25V70H52.501V54.666H60.834V46.924H52.25V40.527H70.75V45.754L62.418 54.086 63.832 55.5 72.75 46.582V38.527H52.25V33.875H72.75V23.552H70.75V31.874H52.25V30H68.25V20.552H66.25V28H52.25V26.43H62.5V18.135H60.5V24.43H52.25V22.875H56.834V18.135H54.834V20.875H52.25V15.492H84.833z" fill="#fcdb7c" data-fill-palette-color="accent"></path><rect x="58.167" y="80" width="23.333" height="2" fill="#fcdb7c" data-fill-palette-color="accent"></rect><polygon points="61.5,62.25 61.5,64.25 69.414,64.25 82.313,51.352 82.313,18.135 80.313,18.135 80.313,50.523 68.586,62.25  " fill="#fcdb7c" data-fill-palette-color="accent"></polygon><rect x="80.5" y="56.875" width="2" height="5.875" fill="#fcdb7c" data-fill-palette-color="accent"></rect></g></svg></g></svg></g><g><rect width="92.63228391465834" height="9.621721460183542" y="136.82856562428512" x="280.13941910463495" fill="#fcdb7c" data-fill-palette-color="accent"></rect><rect width="92.63228391465834" height="9.621721460183542" y="136.82856562428512" x="22.748296980706698" fill="#fcdb7c" data-fill-palette-color="accent"></rect><rect width="92.63228391465834" height="9.621721460183542" y="117.58512270391805" x="280.13941910463495" fill="#fcdb7c" data-fill-palette-color="accent"></rect><rect width="92.63228391465834" height="9.621721460183542" y="117.58512270391805" x="22.748296980706698" fill="#fcdb7c" data-fill-palette-color="accent"></rect></g></svg></g><defs></defs></svg><rect width="350.0234060385866" height="247.2" fill="none" stroke="none" visibility="hidden"></rect></g></svg></g></svg>